<svg width="20" height="20" viewBox="0 0 20 20" fill="none" xmlns="http://www.w3.org/2000/svg">
<path d="M13.437 1.5625V2.44125C12.9244 2.52838 12.4376 2.72865 12.012 3.0275L11.367 2.42125L10.5077 3.34L11.1327 3.92563C10.8474 4.34269 10.6542 4.81566 10.5658 5.31313H9.68703V6.56313H10.5658C10.657 7.08188 10.862 7.55438 11.152 7.96938L10.4877 8.61312L11.3877 9.51312L12.0314 8.84812C12.4464 9.13812 12.9189 9.34313 13.4377 9.43438V10.3125H14.6877V9.43375C15.1851 9.34551 15.658 9.15249 16.0752 8.8675L16.6602 9.4925L17.5789 8.6325L16.9727 7.98875C17.2664 7.57 17.4664 7.08563 17.5589 6.5625H18.437V5.3125H17.5583C17.4685 4.80639 17.2683 4.32626 16.972 3.90625L17.5583 3.32L16.6789 2.44125L16.0933 3.0275C15.6733 2.73119 15.1931 2.53103 14.687 2.44125V1.5625H13.437ZM14.062 3.63313C14.3652 3.63113 14.6658 3.68937 14.9463 3.80447C15.2268 3.91956 15.4817 4.08921 15.6961 4.30358C15.9106 4.51795 16.0803 4.77277 16.1955 5.05325C16.3106 5.33374 16.3689 5.6343 16.367 5.9375C16.367 7.22188 15.3464 8.2425 14.062 8.2425C12.7777 8.2425 11.757 7.22188 11.757 5.9375C11.757 4.65313 12.7777 3.6325 14.062 3.6325V3.63313ZM5.95578 7.32375L4.80453 7.7925L5.25328 8.92375C4.65597 9.28129 4.15348 9.77734 3.78828 10.37L2.67578 9.92L2.20703 11.0731L3.31953 11.5219C3.23175 11.86 3.18599 12.2076 3.18328 12.5569C3.18328 12.9131 3.23641 13.2606 3.31953 13.5919L2.20703 14.0419L2.67578 15.1937L3.78828 14.7437C4.15023 15.3441 4.65308 15.8472 5.25328 16.2094L4.80328 17.3219L5.95641 17.7906L6.40641 16.6781C6.7445 16.7659 7.09212 16.8117 7.44141 16.8144C7.79766 16.8144 8.14641 16.7612 8.47641 16.6781L8.92641 17.7906L10.0783 17.3219L9.62828 16.2094C10.2216 15.845 10.7178 15.3423 11.0745 14.7444L12.2058 15.1931L12.6745 14.0413L11.5433 13.5913C11.6245 13.26 11.6795 12.9119 11.6795 12.5562C11.6795 12.2 11.6252 11.8513 11.542 11.5206L12.6752 11.0719L12.2064 9.91875L11.0752 10.3687C10.716 9.77767 10.22 9.28163 9.62891 8.9225L10.0789 7.79125L8.92578 7.3225L8.47766 8.45375C8.1391 8.36735 7.79142 8.32182 7.44203 8.31812C7.08578 8.31813 6.73828 8.37188 6.40703 8.45438L5.95703 7.32312L5.95578 7.32375ZM7.44078 9.56875C9.10516 9.56875 10.4283 10.8937 10.4283 12.5575C10.4295 14.2219 9.10516 15.565 7.44078 15.565C7.04569 15.5655 6.65439 15.488 6.28928 15.3371C5.92417 15.1861 5.59243 14.9646 5.31306 14.6852C5.03369 14.4059 4.81217 14.0741 4.66121 13.709C4.51024 13.3439 4.43279 12.9526 4.43328 12.5575C4.43328 10.8931 5.77703 9.56875 7.44078 9.56875Z" fill="#660F5D"/>
</svg>
