<svg width="20" height="20" viewBox="0 0 20 20" fill="none" xmlns="http://www.w3.org/2000/svg">
<g clip-path="url(#clip0_347_18146)">
<path d="M12.0664 2.0063C11.9697 1.5887 11.7285 1.2187 11.3855 0.961589C11.0425 0.704483 10.6197 0.576797 10.1917 0.601062C9.7637 0.625328 9.35805 0.799986 9.0463 1.09422C8.73454 1.38844 8.53674 1.78333 8.48779 2.2092C8.43884 2.63507 8.54188 3.06454 8.77874 3.42183C9.0156 3.77912 9.37105 4.04127 9.78236 4.16201C10.1937 4.28275 10.6344 4.25433 11.0268 4.08176C11.4192 3.90918 11.7381 3.60356 11.9271 3.2188C13.0777 3.48061 14.1474 4.0185 15.0438 4.78605C15.9402 5.5536 16.6363 6.52775 17.0721 7.62443L18.1814 7.18818C17.6681 5.88743 16.8412 4.73372 15.7744 3.82967C14.7075 2.92562 13.4338 2.29926 12.0664 2.0063ZM10.3027 3.03005C10.2215 3.03266 10.1406 3.01892 10.0648 2.98964C9.98898 2.96036 9.91985 2.91615 9.86148 2.85962C9.80311 2.8031 9.7567 2.73542 9.725 2.6606C9.69331 2.58579 9.67697 2.50537 9.67697 2.42411C9.67697 2.34286 9.69331 2.26244 9.725 2.18762C9.7567 2.11281 9.80311 2.04513 9.86148 1.9886C9.91985 1.93208 9.98898 1.88786 10.0648 1.85859C10.1406 1.82931 10.2215 1.81557 10.3027 1.81818C10.4635 1.81818 10.6177 1.88205 10.7314 1.99574C10.8451 2.10944 10.9089 2.26364 10.9089 2.42443C10.9089 2.58521 10.8451 2.73942 10.7314 2.85311C10.6177 2.9668 10.4635 3.03005 10.3027 3.03005ZM7.63581 3.5338L7.18769 2.42505C5.88694 2.93839 4.73323 3.76526 3.82918 4.83211C2.92513 5.89896 2.29877 7.1727 2.00581 8.54005C1.58821 8.63683 1.21821 8.878 0.961101 9.22101C0.703995 9.56402 0.576308 9.98682 0.600574 10.4148C0.62484 10.8428 0.799497 11.2484 1.09373 11.5602C1.38796 11.8719 1.78285 12.0697 2.20871 12.1187C2.63458 12.1677 3.06405 12.0646 3.42134 11.8277C3.77863 11.5909 4.04078 11.2354 4.16152 10.8241C4.28226 10.4128 4.25384 9.97206 4.08127 9.57967C3.9087 9.18727 3.60307 8.86843 3.21831 8.67943C3.4812 7.52738 4.02084 6.45675 4.79055 5.56017C5.56026 4.66359 6.53685 3.96808 7.63581 3.5338ZM2.42331 10.9101C2.3437 10.9101 2.26486 10.8944 2.19131 10.8639C2.11776 10.8334 2.05092 10.7888 1.99463 10.7325C1.93833 10.6762 1.89368 10.6094 1.86321 10.5358C1.83274 10.4622 1.81706 10.3834 1.81706 10.3038C1.81706 10.2242 1.83274 10.1454 1.86321 10.0718C1.89368 9.99825 1.93833 9.93141 1.99463 9.87512C2.05092 9.81882 2.11776 9.77417 2.19131 9.7437C2.26486 9.71323 2.3437 9.69755 2.42331 9.69755C2.5841 9.69755 2.7383 9.76142 2.852 9.87512C2.96569 9.98881 3.02956 10.143 3.02956 10.3038C3.02956 10.4646 2.96569 10.6188 2.852 10.7325C2.7383 10.8462 2.5841 10.9101 2.42331 10.9101ZM10.3027 16.3644C9.96458 16.3655 9.63347 16.4609 9.34653 16.6397C9.05959 16.8186 8.8282 17.0739 8.67831 17.3769C7.52745 17.1151 6.4576 16.5772 5.56112 15.8095C4.66463 15.0419 3.96845 14.0675 3.53269 12.9707L2.42394 13.4188C2.93895 14.7217 3.76859 15.8769 4.83879 16.7811C5.90898 17.6853 7.18642 18.3104 8.55706 18.6007C8.63579 18.9343 8.80722 19.239 9.05159 19.4794C9.29596 19.7199 9.60332 19.8864 9.93821 19.9597C10.2731 20.033 10.6219 20.0102 10.9444 19.8938C11.2669 19.7775 11.5499 19.5724 11.7609 19.3021C11.9718 19.0319 12.1021 18.7075 12.1367 18.3664C12.1713 18.0254 12.1087 17.6815 11.9563 17.3744C11.8039 17.0673 11.5678 16.8095 11.2752 16.6309C10.9826 16.4522 10.6455 16.3598 10.3027 16.3644ZM10.3027 18.7888C10.1419 18.7888 9.9877 18.7249 9.874 18.6112C9.76031 18.4975 9.69644 18.3433 9.69644 18.1826C9.69644 18.0218 9.76031 17.8676 9.874 17.7539C9.9877 17.6402 10.1419 17.5763 10.3027 17.5763C10.4635 17.5763 10.6177 17.6402 10.7314 17.7539C10.8451 17.8676 10.9089 18.0218 10.9089 18.1826C10.9089 18.3433 10.8451 18.4975 10.7314 18.6112C10.6177 18.7249 10.4635 18.7888 10.3027 18.7888ZM19.9996 10.3032C20.0007 9.97867 19.9149 9.65977 19.7512 9.37957C19.5876 9.09937 19.3519 8.86806 19.0687 8.70965C18.7855 8.55124 18.465 8.47148 18.1406 8.47866C17.8161 8.48584 17.4995 8.5797 17.2236 8.75048C16.9477 8.92127 16.7225 9.16278 16.5713 9.44995C16.4202 9.73712 16.3487 10.0595 16.3641 10.3836C16.3796 10.7078 16.4815 11.0219 16.6593 11.2934C16.8371 11.5648 17.0843 11.7838 17.3752 11.9276C17.1133 13.0783 16.5753 14.148 15.8077 15.0444C15.04 15.9408 14.0657 16.6368 12.9689 17.0726L13.4177 18.1819C14.7206 17.6669 15.8758 16.8373 16.78 15.7671C17.6842 14.6969 18.3093 13.4194 18.5996 12.0488C18.9941 11.9555 19.3461 11.733 19.5998 11.4168C19.8534 11.1005 19.9941 10.7086 19.9996 10.3032ZM18.1808 10.9094C18.02 10.9094 17.8658 10.8456 17.7521 10.7319C17.6384 10.6182 17.5746 10.464 17.5746 10.3032C17.5746 10.1424 17.6384 9.98819 17.7521 9.87449C17.8658 9.7608 18.02 9.69693 18.1808 9.69693C18.3416 9.69693 18.4958 9.7608 18.6095 9.87449C18.7232 9.98819 18.7871 10.1424 18.7871 10.3032C18.7871 10.464 18.7232 10.6182 18.6095 10.7319C18.4958 10.8456 18.3416 10.9094 18.1808 10.9094Z" fill="#660F5D"/>
<path d="M11.9937 10.2185C12.3385 9.88183 12.5752 9.44998 12.6734 8.97814C12.7717 8.50631 12.7271 8.01589 12.5453 7.56953C12.3635 7.12317 12.0528 6.74112 11.6529 6.47217C11.2529 6.20322 10.7819 6.05957 10.3 6.05957C9.818 6.05957 9.34699 6.20322 8.94705 6.47217C8.54712 6.74112 8.23643 7.12317 8.05464 7.56953C7.87286 8.01589 7.82825 8.50631 7.92649 8.97814C8.02473 9.44998 8.26138 9.88183 8.60621 10.2185C8.19577 10.4958 7.85957 10.8695 7.62705 11.3069C7.39453 11.7443 7.27278 12.232 7.27246 12.7273V13.9392H13.3331V12.7267C13.3321 12.2308 13.2095 11.7428 12.976 11.3054C12.7425 10.868 12.4052 10.4952 11.9937 10.2185ZM9.09059 8.48416C9.09059 8.32493 9.12195 8.16726 9.18288 8.02016C9.24382 7.87305 9.33313 7.73939 9.44572 7.62679C9.55831 7.5142 9.69197 7.42489 9.83908 7.36396C9.98619 7.30302 10.1439 7.27166 10.3031 7.27166C10.4623 7.27166 10.62 7.30302 10.7671 7.36396C10.9142 7.42489 11.0479 7.5142 11.1605 7.62679C11.273 7.73939 11.3624 7.87305 11.4233 8.02016C11.4842 8.16726 11.5156 8.32493 11.5156 8.48416C11.5156 8.80574 11.3878 9.11414 11.1605 9.34153C10.9331 9.56892 10.6247 9.69666 10.3031 9.69666C9.98151 9.69666 9.67311 9.56892 9.44572 9.34153C9.21833 9.11414 9.09059 8.80574 9.09059 8.48416ZM8.48434 12.7267C8.47986 12.485 8.52358 12.2449 8.61295 12.0204C8.70233 11.7958 8.83556 11.5913 9.00486 11.4189C9.17416 11.2464 9.37614 11.1094 9.59899 11.0159C9.82184 10.9224 10.0611 10.8742 10.3028 10.8742C10.5445 10.8742 10.7837 10.9224 11.0066 11.0159C11.2294 11.1094 11.4314 11.2464 11.6007 11.4189C11.77 11.5913 11.9032 11.7958 11.9926 12.0204C12.082 12.2449 12.1257 12.485 12.1212 12.7267H8.48434Z" fill="#660F5D"/>
</g>
<defs>
<clipPath id="clip0_347_18146">
<rect width="20" height="20" fill="white"/>
</clipPath>
</defs>
</svg>
