<svg width="20" height="20" viewBox="0 0 20 20" fill="none" xmlns="http://www.w3.org/2000/svg">
<path d="M10 12.5C11.3807 12.5 12.5 11.3807 12.5 10C12.5 8.61929 11.3807 7.5 10 7.5C8.61929 7.5 7.5 8.61929 7.5 10C7.5 11.3807 8.61929 12.5 10 12.5Z" stroke="#660F5D" stroke-width="1.5"/>
<path d="M11.4712 1.79317C11.1654 1.6665 10.777 1.6665 10.0004 1.6665C9.22371 1.6665 8.83538 1.6665 8.52954 1.79317C8.32719 1.87693 8.14334 1.99975 7.98848 2.15461C7.83362 2.30946 7.7108 2.49332 7.62704 2.69567C7.55038 2.8815 7.51954 3.099 7.50788 3.41484C7.50245 3.64311 7.43921 3.86628 7.32408 4.06347C7.20894 4.26065 7.04567 4.42541 6.84954 4.54234C6.65021 4.65381 6.42586 4.7129 6.19749 4.71406C5.96911 4.71523 5.74416 4.65844 5.54371 4.549C5.26371 4.40067 5.06121 4.319 4.86038 4.29234C4.42231 4.23473 3.97929 4.35343 3.62871 4.62234C3.36704 4.82484 3.17204 5.16067 2.78371 5.83317C2.39538 6.50567 2.20038 6.8415 2.15788 7.17067C2.12924 7.38771 2.14364 7.60827 2.20026 7.81975C2.25689 8.03123 2.35462 8.22947 2.48788 8.40317C2.61121 8.56317 2.78371 8.69734 3.05121 8.86567C3.44538 9.11317 3.69871 9.53484 3.69871 9.99984C3.69871 10.4648 3.44538 10.8865 3.05121 11.1332C2.78371 11.3023 2.61038 11.4365 2.48788 11.5965C2.35462 11.7702 2.25689 11.9684 2.20026 12.1799C2.14364 12.3914 2.12924 12.612 2.15788 12.829C2.20121 13.1573 2.39538 13.494 2.78288 14.1665C3.17204 14.839 3.36621 15.1748 3.62871 15.3773C3.80241 15.5106 4.00065 15.6083 4.21213 15.6649C4.42361 15.7216 4.64417 15.736 4.86121 15.7073C5.06121 15.6807 5.26371 15.599 5.54371 15.4507C5.74416 15.3412 5.96911 15.2844 6.19749 15.2856C6.42586 15.2868 6.65021 15.3459 6.84954 15.4573C7.25204 15.6907 7.49121 16.1198 7.50788 16.5848C7.51954 16.9015 7.54954 17.1182 7.62704 17.304C7.7108 17.5064 7.83362 17.6902 7.98848 17.8451C8.14334 17.9999 8.32719 18.1227 8.52954 18.2065C8.83538 18.3332 9.22371 18.3332 10.0004 18.3332C10.777 18.3332 11.1654 18.3332 11.4712 18.2065C11.6736 18.1227 11.8574 17.9999 12.0123 17.8451C12.1671 17.6902 12.2899 17.5064 12.3737 17.304C12.4504 17.1182 12.4812 16.9015 12.4929 16.5848C12.5095 16.1198 12.7487 15.6898 13.1512 15.4573C13.3505 15.3459 13.5749 15.2868 13.8033 15.2856C14.0316 15.2844 14.2566 15.3412 14.457 15.4507C14.737 15.599 14.9395 15.6807 15.1395 15.7073C15.3566 15.736 15.5771 15.7216 15.7886 15.6649C16.0001 15.6083 16.1983 15.5106 16.372 15.3773C16.6345 15.1757 16.8287 14.839 17.217 14.1665C17.6054 13.494 17.8004 13.1582 17.8429 12.829C17.8715 12.612 17.8571 12.3914 17.8005 12.1799C17.7439 11.9684 17.6461 11.7702 17.5129 11.5965C17.3895 11.4365 17.217 11.3023 16.9495 11.134C16.7545 11.0152 16.5928 10.8488 16.4795 10.6504C16.3663 10.4521 16.3052 10.2282 16.302 9.99984C16.302 9.53484 16.5554 9.11317 16.9495 8.8665C17.217 8.69734 17.3904 8.56317 17.5129 8.40317C17.6461 8.22947 17.7439 8.03123 17.8005 7.81975C17.8571 7.60827 17.8715 7.38771 17.8429 7.17067C17.7995 6.84234 17.6054 6.50567 17.2179 5.83317C16.8287 5.16067 16.6345 4.82484 16.372 4.62234C16.1983 4.48908 16.0001 4.39135 15.7886 4.33473C15.5771 4.2781 15.3566 4.2637 15.1395 4.29234C14.9395 4.319 14.737 4.40067 14.4562 4.549C14.2559 4.65829 14.0311 4.715 13.8029 4.71383C13.5746 4.71267 13.3504 4.65366 13.1512 4.54234C12.9551 4.42541 12.7918 4.26065 12.6767 4.06347C12.5615 3.86628 12.4983 3.64311 12.4929 3.41484C12.4812 3.09817 12.4512 2.8815 12.3737 2.69567C12.2899 2.49332 12.1671 2.30946 12.0123 2.15461C11.8574 1.99975 11.6736 1.87693 11.4712 1.79317Z" stroke="#660F5D" stroke-width="1.5"/>
</svg>
