<svg width="20" height="20" viewBox="0 0 20 20" fill="none" xmlns="http://www.w3.org/2000/svg">
<path d="M7.50033 10.8332C9.34127 10.8332 10.8337 9.34079 10.8337 7.49984C10.8337 5.65889 9.34127 4.1665 7.50033 4.1665C5.65938 4.1665 4.16699 5.65889 4.16699 7.49984C4.16699 9.34079 5.65938 10.8332 7.50033 10.8332Z" stroke="#660F5D" stroke-width="2" stroke-linecap="round" stroke-linejoin="round"/>
<path d="M13.3337 15.8332C13.3337 13.0715 10.722 10.8332 7.50033 10.8332C4.27866 10.8332 1.66699 13.0715 1.66699 15.8332M12.5003 10.8332C13.0573 10.8331 13.6054 10.6935 14.0946 10.4271C14.5837 10.1607 14.9983 9.77595 15.3004 9.30804C15.6026 8.84012 15.7826 8.30395 15.8242 7.74852C15.8657 7.19308 15.7674 6.63608 15.5383 6.12842C15.3091 5.62076 14.9564 5.17861 14.5124 4.84238C14.0683 4.50614 13.5471 4.28654 12.9963 4.20364C12.4455 4.12073 11.8827 4.17717 11.3594 4.36778C10.836 4.5584 10.3688 4.87713 10.0003 5.29484" stroke="#660F5D" stroke-width="2" stroke-linecap="round" stroke-linejoin="round"/>
<path d="M18.3333 15.8334C18.3333 13.0717 15.7217 10.8334 12.5 10.8334C11.8275 10.8334 10.7475 10.5892 10 9.8042" stroke="#660F5D" stroke-width="2" stroke-linecap="round" stroke-linejoin="round"/>
</svg>
