<svg width="20" height="21" viewBox="0 0 20 21" fill="none" xmlns="http://www.w3.org/2000/svg">
<g clip-path="url(#clip0_347_17592)">
<path d="M12.0664 2.5063C11.9697 2.0887 11.7285 1.7187 11.3855 1.46159C11.0425 1.20448 10.6197 1.0768 10.1917 1.10106C9.7637 1.12533 9.35804 1.29999 9.04629 1.59422C8.73454 1.88844 8.53674 2.28333 8.48779 2.7092C8.43884 3.13507 8.54188 3.56454 8.77874 3.92183C9.0156 4.27912 9.37105 4.54127 9.78236 4.66201C10.1937 4.78275 10.6344 4.75433 11.0268 4.58176C11.4192 4.40918 11.7381 4.10356 11.9271 3.7188C13.0777 3.98061 14.1474 4.5185 15.0438 5.28605C15.9402 6.0536 16.6363 7.02775 17.0721 8.12443L18.1814 7.68818C17.6681 6.38743 16.8412 5.23372 15.7744 4.32967C14.7075 3.42562 13.4338 2.79926 12.0664 2.5063ZM10.3027 3.53005C10.2215 3.53266 10.1406 3.51892 10.0648 3.48964C9.98898 3.46036 9.91985 3.41615 9.86148 3.35962C9.80311 3.3031 9.7567 3.23542 9.725 3.1606C9.69331 3.08579 9.67697 3.00537 9.67697 2.92411C9.67697 2.84286 9.69331 2.76244 9.725 2.68762C9.7567 2.61281 9.80311 2.54513 9.86148 2.4886C9.91985 2.43208 9.98898 2.38786 10.0648 2.35859C10.1406 2.32931 10.2215 2.31557 10.3027 2.31818C10.4635 2.31818 10.6177 2.38205 10.7314 2.49574C10.8451 2.60944 10.9089 2.76364 10.9089 2.92443C10.9089 3.08521 10.8451 3.23942 10.7314 3.35311C10.6177 3.4668 10.4635 3.53005 10.3027 3.53005ZM7.63581 4.0338L7.18769 2.92505C5.88694 3.43839 4.73323 4.26526 3.82918 5.33211C2.92513 6.39896 2.29877 7.6727 2.00581 9.04005C1.58821 9.13683 1.21821 9.378 0.961101 9.72101C0.703995 10.064 0.576309 10.4868 0.600574 10.9148C0.62484 11.3428 0.799497 11.7484 1.09373 12.0602C1.38796 12.3719 1.78285 12.5697 2.20871 12.6187C2.63458 12.6677 3.06405 12.5646 3.42134 12.3277C3.77863 12.0909 4.04078 11.7354 4.16152 11.3241C4.28226 10.9128 4.25384 10.4721 4.08127 10.0797C3.9087 9.68726 3.60307 9.36843 3.21831 9.17943C3.4812 8.02738 4.02084 6.95675 4.79055 6.06017C5.56026 5.16359 6.53685 4.46808 7.63581 4.0338ZM2.42331 11.4101C2.3437 11.4101 2.26486 11.3944 2.19131 11.3639C2.11776 11.3334 2.05092 11.2888 1.99463 11.2325C1.93833 11.1762 1.89368 11.1094 1.86321 11.0358C1.83274 10.9622 1.81706 10.8834 1.81706 10.8038C1.81706 10.7242 1.83274 10.6454 1.86321 10.5718C1.89368 10.4982 1.93833 10.4314 1.99463 10.3751C2.05092 10.3188 2.11776 10.2742 2.19131 10.2437C2.26486 10.2132 2.3437 10.1976 2.42331 10.1976C2.5841 10.1976 2.7383 10.2614 2.852 10.3751C2.96569 10.4888 3.02956 10.643 3.02956 10.8038C3.02956 10.9646 2.96569 11.1188 2.852 11.2325C2.7383 11.3462 2.5841 11.4101 2.42331 11.4101ZM10.3027 16.8644C9.96458 16.8655 9.63346 16.9609 9.34653 17.1397C9.05959 17.3186 8.82819 17.5739 8.67831 17.8769C7.52745 17.6151 6.4576 17.0772 5.56112 16.3095C4.66463 15.5419 3.96845 14.5675 3.53269 13.4707L2.42394 13.9188C2.93895 15.2217 3.76859 16.3769 4.83878 17.2811C5.90898 18.1853 7.18642 18.8104 8.55706 19.1007C8.63579 19.4343 8.80722 19.739 9.05159 19.9794C9.29596 20.2199 9.60331 20.3864 9.93821 20.4597C10.2731 20.533 10.6219 20.5102 10.9444 20.3938C11.2669 20.2775 11.5499 20.0724 11.7609 19.8021C11.9718 19.5319 12.1021 19.2075 12.1367 18.8664C12.1713 18.5254 12.1087 18.1815 11.9563 17.8744C11.8039 17.5673 11.5678 17.3095 11.2752 17.1309C10.9826 16.9522 10.6455 16.8598 10.3027 16.8644ZM10.3027 19.2888C10.1419 19.2888 9.9877 19.2249 9.874 19.1112C9.76031 18.9975 9.69644 18.8433 9.69644 18.6826C9.69644 18.5218 9.76031 18.3676 9.874 18.2539C9.9877 18.1402 10.1419 18.0763 10.3027 18.0763C10.4635 18.0763 10.6177 18.1402 10.7314 18.2539C10.8451 18.3676 10.9089 18.5218 10.9089 18.6826C10.9089 18.8433 10.8451 18.9975 10.7314 19.1112C10.6177 19.2249 10.4635 19.2888 10.3027 19.2888ZM19.9996 10.8032C20.0007 10.4787 19.9149 10.1598 19.7512 9.87957C19.5876 9.59937 19.3519 9.36806 19.0687 9.20965C18.7855 9.05124 18.465 8.97148 18.1406 8.97866C17.8161 8.98584 17.4995 9.0797 17.2236 9.25048C16.9477 9.42127 16.7225 9.66278 16.5713 9.94995C16.4202 10.2371 16.3487 10.5595 16.3641 10.8836C16.3796 11.2078 16.4815 11.5219 16.6593 11.7934C16.8371 12.0648 17.0842 12.2838 17.3752 12.4276C17.1133 13.5783 16.5753 14.648 15.8077 15.5444C15.04 16.4408 14.0657 17.1368 12.9689 17.5726L13.4177 18.6819C14.7206 18.1669 15.8758 17.3373 16.78 16.2671C17.6842 15.1969 18.3093 13.9194 18.5996 12.5488C18.9941 12.4555 19.3461 12.233 19.5998 11.9168C19.8534 11.6005 19.9941 11.2086 19.9996 10.8032ZM18.1808 11.4094C18.02 11.4094 17.8658 11.3456 17.7521 11.2319C17.6384 11.1182 17.5746 10.964 17.5746 10.8032C17.5746 10.6424 17.6384 10.4882 17.7521 10.3745C17.8658 10.2608 18.02 10.1969 18.1808 10.1969C18.3416 10.1969 18.4958 10.2608 18.6095 10.3745C18.7232 10.4882 18.7871 10.6424 18.7871 10.8032C18.7871 10.964 18.7232 11.1182 18.6095 11.2319C18.4958 11.3456 18.3416 11.4094 18.1808 11.4094Z" fill="white"/>
<path d="M9.00042 10.9286C9.94719 10.9286 10.7147 10.1611 10.7147 9.21429C10.7147 8.26751 9.94719 7.5 9.00042 7.5C8.05364 7.5 7.28613 8.26751 7.28613 9.21429C7.28613 10.1611 8.05364 10.9286 9.00042 10.9286Z" stroke="white" stroke-linecap="round" stroke-linejoin="round"/>
<path d="M12 13.5C12 12.0797 10.6569 10.9286 9 10.9286C7.34314 10.9286 6 12.0797 6 13.5M11.5714 10.9286C11.8579 10.9286 12.1398 10.8568 12.3913 10.7197C12.6429 10.5827 12.8561 10.3849 13.0115 10.1442C13.1669 9.90357 13.2595 9.62783 13.2808 9.34218C13.3022 9.05652 13.2517 8.77007 13.1338 8.50899C13.016 8.2479 12.8346 8.02051 12.6062 7.84759C12.3778 7.67467 12.1098 7.56173 11.8265 7.5191C11.5432 7.47646 11.2538 7.50548 10.9847 7.60352C10.7155 7.70155 10.4752 7.86546 10.2857 8.08029" stroke="white" stroke-linecap="round" stroke-linejoin="round"/>
<path d="M14.5718 13.4999C14.5718 12.0796 13.2287 10.9285 11.5718 10.9285C11.226 10.9285 10.6706 10.8029 10.2861 10.3992" stroke="white" stroke-linecap="round" stroke-linejoin="round"/>
</g>
<defs>
<clipPath id="clip0_347_17592">
<rect width="20" height="20" fill="white" transform="translate(0 0.5)"/>
</clipPath>
</defs>
</svg>
