<svg width="20" height="20" viewBox="0 0 20 20" fill="none" xmlns="http://www.w3.org/2000/svg">
<path d="M4.16667 9.16602H10.8333V10.8327H4.16667V13.3327L0 9.99935L4.16667 6.66602V9.16602ZM3.33333 14.9994H5.59C6.55224 15.848 7.73891 16.4009 9.00761 16.5918C10.2763 16.7827 11.5731 16.6035 12.7425 16.0756C13.9119 15.5477 14.9041 14.6937 15.6001 13.6159C16.296 12.5381 16.6663 11.2823 16.6663 9.99935C16.6663 8.71637 16.296 7.46063 15.6001 6.38284C14.9041 5.30504 13.9119 4.45097 12.7425 3.9231C11.5731 3.39523 10.2763 3.21599 9.00761 3.4069C7.73891 3.5978 6.55224 4.15074 5.59 4.99935H3.33333C4.10911 3.9639 5.11555 3.12352 6.27278 2.54491C7.43001 1.96629 8.70618 1.66537 10 1.66602C14.6025 1.66602 18.3333 5.39685 18.3333 9.99935C18.3333 14.6018 14.6025 18.3327 10 18.3327C8.70618 18.3333 7.43001 18.0324 6.27278 17.4538C5.11555 16.8752 4.10911 16.0348 3.33333 14.9994Z" fill="#FAFAFA"/>
</svg>
