<svg width="20" height="20" viewBox="0 0 20 20" fill="none" xmlns="http://www.w3.org/2000/svg">
<path d="M10 12.5C11.3807 12.5 12.5 11.3807 12.5 10C12.5 8.61929 11.3807 7.5 10 7.5C8.61929 7.5 7.5 8.61929 7.5 10C7.5 11.3807 8.61929 12.5 10 12.5Z" stroke="#FAFAFA" stroke-width="1.5"/>
<path d="M11.4712 1.79341C11.1654 1.66675 10.777 1.66675 10.0004 1.66675C9.22371 1.66675 8.83538 1.66675 8.52954 1.79341C8.32719 1.87718 8.14334 1.99999 7.98848 2.15485C7.83362 2.30971 7.7108 2.49357 7.62704 2.69591C7.55038 2.88175 7.51954 3.09925 7.50788 3.41508C7.50245 3.64336 7.43921 3.86652 7.32408 4.06371C7.20894 4.2609 7.04567 4.42566 6.84954 4.54258C6.65021 4.65406 6.42586 4.71314 6.19749 4.71431C5.96911 4.71547 5.74416 4.65868 5.54371 4.54925C5.26371 4.40091 5.06121 4.31925 4.86038 4.29258C4.42231 4.23497 3.97929 4.35367 3.62871 4.62258C3.36704 4.82508 3.17204 5.16091 2.78371 5.83341C2.39538 6.50591 2.20038 6.84175 2.15788 7.17091C2.12924 7.38796 2.14364 7.60852 2.20026 7.81999C2.25689 8.03147 2.35462 8.22972 2.48788 8.40341C2.61121 8.56341 2.78371 8.69758 3.05121 8.86591C3.44538 9.11341 3.69871 9.53508 3.69871 10.0001C3.69871 10.4651 3.44538 10.8867 3.05121 11.1334C2.78371 11.3026 2.61038 11.4367 2.48788 11.5967C2.35462 11.7704 2.25689 11.9687 2.20026 12.1802C2.14364 12.3916 2.12924 12.6122 2.15788 12.8292C2.20121 13.1576 2.39538 13.4942 2.78288 14.1667C3.17204 14.8392 3.36621 15.1751 3.62871 15.3776C3.80241 15.5108 4.00065 15.6086 4.21213 15.6652C4.42361 15.7218 4.64417 15.7362 4.86121 15.7076C5.06121 15.6809 5.26371 15.5992 5.54371 15.4509C5.74416 15.3415 5.96911 15.2847 6.19749 15.2859C6.42586 15.287 6.65021 15.3461 6.84954 15.4576C7.25204 15.6909 7.49121 16.1201 7.50788 16.5851C7.51954 16.9017 7.54954 17.1184 7.62704 17.3042C7.7108 17.5066 7.83362 17.6905 7.98848 17.8453C8.14334 18.0002 8.32719 18.123 8.52954 18.2067C8.83538 18.3334 9.22371 18.3334 10.0004 18.3334C10.777 18.3334 11.1654 18.3334 11.4712 18.2067C11.6736 18.123 11.8574 18.0002 12.0123 17.8453C12.1671 17.6905 12.2899 17.5066 12.3737 17.3042C12.4504 17.1184 12.4812 16.9017 12.4929 16.5851C12.5095 16.1201 12.7487 15.6901 13.1512 15.4576C13.3505 15.3461 13.5749 15.287 13.8033 15.2859C14.0316 15.2847 14.2566 15.3415 14.457 15.4509C14.737 15.5992 14.9395 15.6809 15.1395 15.7076C15.3566 15.7362 15.5771 15.7218 15.7886 15.6652C16.0001 15.6086 16.1983 15.5108 16.372 15.3776C16.6345 15.1759 16.8287 14.8392 17.217 14.1667C17.6054 13.4942 17.8004 13.1584 17.8429 12.8292C17.8715 12.6122 17.8571 12.3916 17.8005 12.1802C17.7439 11.9687 17.6461 11.7704 17.5129 11.5967C17.3895 11.4367 17.217 11.3026 16.9495 11.1342C16.7545 11.0154 16.5928 10.849 16.4795 10.6507C16.3663 10.4523 16.3052 10.2285 16.302 10.0001C16.302 9.53508 16.5554 9.11341 16.9495 8.86675C17.217 8.69758 17.3904 8.56341 17.5129 8.40341C17.6461 8.22972 17.7439 8.03147 17.8005 7.81999C17.8571 7.60852 17.8715 7.38796 17.8429 7.17091C17.7995 6.84258 17.6054 6.50591 17.2179 5.83341C16.8287 5.16091 16.6345 4.82508 16.372 4.62258C16.1983 4.48932 16.0001 4.39159 15.7886 4.33497C15.5771 4.27835 15.3566 4.26394 15.1395 4.29258C14.9395 4.31925 14.737 4.40091 14.4562 4.54925C14.2559 4.65853 14.0311 4.71524 13.8029 4.71408C13.5746 4.71291 13.3504 4.65391 13.1512 4.54258C12.9551 4.42566 12.7918 4.2609 12.6767 4.06371C12.5615 3.86652 12.4983 3.64336 12.4929 3.41508C12.4812 3.09841 12.4512 2.88175 12.3737 2.69591C12.2899 2.49357 12.1671 2.30971 12.0123 2.15485C11.8574 1.99999 11.6736 1.87718 11.4712 1.79341Z" stroke="#FAFAFA" stroke-width="1.5"/>
</svg>
