<svg width="20" height="21" viewBox="0 0 20 21" fill="none" xmlns="http://www.w3.org/2000/svg">
<g clip-path="url(#clip0_199_5383)">
<path d="M12.0669 2.5063C11.9701 2.0887 11.729 1.7187 11.386 1.46159C11.043 1.20448 10.6202 1.0768 10.1922 1.10106C9.76419 1.12533 9.35853 1.29999 9.04678 1.59422C8.73503 1.88844 8.53723 2.28333 8.48828 2.7092C8.43932 3.13507 8.54237 3.56454 8.77923 3.92183C9.01609 4.27912 9.37153 4.54127 9.78285 4.66201C10.1942 4.78275 10.6349 4.75433 11.0273 4.58176C11.4197 4.40918 11.7385 4.10356 11.9276 3.7188C13.0782 3.98061 14.1479 4.5185 15.0443 5.28605C15.9406 6.0536 16.6368 7.02775 17.0725 8.12443L18.1819 7.68818C17.6686 6.38743 16.8417 5.23372 15.7749 4.32967C14.708 3.42562 13.4343 2.79926 12.0669 2.5063ZM10.3032 3.53005C10.222 3.53266 10.1411 3.51892 10.0653 3.48964C9.98947 3.46036 9.92033 3.41615 9.86197 3.35962C9.8036 3.3031 9.75718 3.23542 9.72549 3.1606C9.69379 3.08579 9.67746 3.00537 9.67746 2.92411C9.67746 2.84286 9.69379 2.76244 9.72549 2.68762C9.75718 2.61281 9.8036 2.54513 9.86197 2.4886C9.92033 2.43208 9.98947 2.38786 10.0653 2.35859C10.1411 2.32931 10.222 2.31557 10.3032 2.31818C10.464 2.31818 10.6182 2.38205 10.7319 2.49574C10.8456 2.60944 10.9094 2.76364 10.9094 2.92443C10.9094 3.08521 10.8456 3.23942 10.7319 3.35311C10.6182 3.4668 10.464 3.53005 10.3032 3.53005ZM7.6363 4.0338L7.18818 2.92505C5.88743 3.43839 4.73372 4.26526 3.82967 5.33211C2.92562 6.39896 2.29926 7.6727 2.0063 9.04005C1.5887 9.13683 1.2187 9.378 0.961589 9.72101C0.704483 10.064 0.576797 10.4868 0.601062 10.9148C0.625328 11.3428 0.799986 11.7484 1.09422 12.0602C1.38844 12.3719 1.78333 12.5697 2.2092 12.6187C2.63507 12.6677 3.06454 12.5646 3.42183 12.3277C3.77912 12.0909 4.04127 11.7354 4.16201 11.3241C4.28275 10.9128 4.25433 10.4721 4.08176 10.0797C3.90918 9.68726 3.60356 9.36843 3.2188 9.17943C3.48169 8.02738 4.02133 6.95675 4.79104 6.06017C5.56075 5.16359 6.53734 4.46808 7.6363 4.0338ZM2.4238 11.4101C2.34419 11.4101 2.26535 11.3944 2.1918 11.3639C2.11825 11.3334 2.05141 11.2888 1.99512 11.2325C1.93882 11.1762 1.89417 11.1094 1.8637 11.0358C1.83323 10.9622 1.81755 10.8834 1.81755 10.8038C1.81755 10.7242 1.83323 10.6454 1.8637 10.5718C1.89417 10.4982 1.93882 10.4314 1.99512 10.3751C2.05141 10.3188 2.11825 10.2742 2.1918 10.2437C2.26535 10.2132 2.34419 10.1976 2.4238 10.1976C2.58459 10.1976 2.73879 10.2614 2.85248 10.3751C2.96618 10.4888 3.03005 10.643 3.03005 10.8038C3.03005 10.9646 2.96618 11.1188 2.85248 11.2325C2.73879 11.3462 2.58459 11.4101 2.4238 11.4101ZM10.3032 16.8644C9.96507 16.8655 9.63395 16.9609 9.34702 17.1397C9.06008 17.3186 8.82868 17.5739 8.6788 17.8769C7.52794 17.6151 6.45809 17.0772 5.5616 16.3095C4.66512 15.5419 3.96894 14.5675 3.53318 13.4707L2.42443 13.9188C2.93944 15.2217 3.76908 16.3769 4.83927 17.2811C5.90947 18.1853 7.18691 18.8104 8.55755 19.1007C8.63628 19.4343 8.80771 19.739 9.05208 19.9794C9.29645 20.2199 9.6038 20.3864 9.9387 20.4597C10.2736 20.533 10.6224 20.5102 10.9449 20.3938C11.2674 20.2775 11.5504 20.0724 11.7614 19.8021C11.9723 19.5319 12.1026 19.2075 12.1372 18.8664C12.1717 18.5254 12.1092 18.1815 11.9568 17.8744C11.8044 17.5673 11.5683 17.3095 11.2757 17.1309C10.9831 16.9522 10.646 16.8598 10.3032 16.8644ZM10.3032 19.2888C10.1424 19.2888 9.98818 19.2249 9.87449 19.1112C9.7608 18.9975 9.69693 18.8433 9.69693 18.6826C9.69693 18.5218 9.7608 18.3676 9.87449 18.2539C9.98818 18.1402 10.1424 18.0763 10.3032 18.0763C10.464 18.0763 10.6182 18.1402 10.7319 18.2539C10.8456 18.3676 10.9094 18.5218 10.9094 18.6826C10.9094 18.8433 10.8456 18.9975 10.7319 19.1112C10.6182 19.2249 10.464 19.2888 10.3032 19.2888ZM20 10.8032C20.0012 10.4787 19.9154 10.1598 19.7517 9.87957C19.588 9.59937 19.3524 9.36806 19.0692 9.20965C18.7859 9.05124 18.4655 8.97148 18.1411 8.97866C17.8166 8.98584 17.5 9.0797 17.2241 9.25048C16.9482 9.42127 16.723 9.66278 16.5718 9.94995C16.4207 10.2371 16.3492 10.5595 16.3646 10.8836C16.3801 11.2078 16.482 11.5219 16.6598 11.7934C16.8376 12.0648 17.0847 12.2838 17.3757 12.4276C17.1138 13.5783 16.5758 14.648 15.8082 15.5444C15.0405 16.4408 14.0662 17.1368 12.9694 17.5726L13.4182 18.6819C14.7211 18.1669 15.8763 17.3373 16.7805 16.2671C17.6847 15.1969 18.3098 13.9194 18.6 12.5488C18.9946 12.4555 19.3466 12.233 19.6003 11.9168C19.8539 11.6005 19.9946 11.2086 20 10.8032ZM18.1813 11.4094C18.0205 11.4094 17.8663 11.3456 17.7526 11.2319C17.6389 11.1182 17.5751 10.964 17.5751 10.8032C17.5751 10.6424 17.6389 10.4882 17.7526 10.3745C17.8663 10.2608 18.0205 10.1969 18.1813 10.1969C18.3421 10.1969 18.4963 10.2608 18.61 10.3745C18.7237 10.4882 18.7875 10.6424 18.7875 10.8032C18.7875 10.964 18.7237 11.1182 18.61 11.2319C18.4963 11.3456 18.3421 11.4094 18.1813 11.4094Z" fill="white"/>
<path d="M8.99993 10.9286C9.9467 10.9286 10.7142 10.1611 10.7142 9.21429C10.7142 8.26751 9.9467 7.5 8.99993 7.5C8.05316 7.5 7.28564 8.26751 7.28564 9.21429C7.28564 10.1611 8.05316 10.9286 8.99993 10.9286Z" stroke="white" stroke-linecap="round" stroke-linejoin="round"/>
<path d="M12 13.5C12 12.0797 10.6569 10.9286 9 10.9286C7.34314 10.9286 6 12.0797 6 13.5M11.5714 10.9286C11.8579 10.9286 12.1398 10.8568 12.3913 10.7197C12.6429 10.5827 12.8561 10.3849 13.0115 10.1442C13.1669 9.90357 13.2595 9.62783 13.2808 9.34218C13.3022 9.05652 13.2517 8.77007 13.1338 8.50899C13.016 8.2479 12.8346 8.02051 12.6062 7.84759C12.3778 7.67467 12.1098 7.56173 11.8265 7.5191C11.5432 7.47646 11.2538 7.50548 10.9847 7.60352C10.7155 7.70155 10.4752 7.86546 10.2857 8.08029" stroke="white" stroke-linecap="round" stroke-linejoin="round"/>
<path d="M14.5714 13.4999C14.5714 12.0796 13.2282 10.9285 11.5714 10.9285C11.2255 10.9285 10.6701 10.8029 10.2856 10.3992" stroke="white" stroke-linecap="round" stroke-linejoin="round"/>
</g>
<defs>
<clipPath id="clip0_199_5383">
<rect width="20" height="20" fill="white" transform="translate(0 0.5)"/>
</clipPath>
</defs>
</svg>
