<svg width="20" height="20" viewBox="0 0 20 20" fill="none" xmlns="http://www.w3.org/2000/svg">
<path d="M10 12.5C11.3807 12.5 12.5 11.3807 12.5 10C12.5 8.61929 11.3807 7.5 10 7.5C8.61929 7.5 7.5 8.61929 7.5 10C7.5 11.3807 8.61929 12.5 10 12.5Z" stroke="#FAFAFA" stroke-width="1.5"/>
<path d="M11.4707 1.79341C11.1649 1.66675 10.7766 1.66675 9.99989 1.66675C9.22322 1.66675 8.83489 1.66675 8.52905 1.79341C8.3267 1.87718 8.14285 1.99999 7.98799 2.15485C7.83313 2.30971 7.71032 2.49357 7.62655 2.69591C7.54989 2.88175 7.51905 3.09925 7.50739 3.41508C7.50196 3.64336 7.43872 3.86652 7.32359 4.06371C7.20845 4.2609 7.04518 4.42566 6.84905 4.54258C6.64973 4.65406 6.42538 4.71314 6.197 4.71431C5.96862 4.71547 5.74368 4.65868 5.54322 4.54925C5.26322 4.40091 5.06072 4.31925 4.85989 4.29258C4.42182 4.23497 3.9788 4.35367 3.62822 4.62258C3.36655 4.82508 3.17155 5.16091 2.78322 5.83341C2.39489 6.50591 2.19989 6.84175 2.15739 7.17091C2.12875 7.38796 2.14315 7.60852 2.19978 7.81999C2.2564 8.03147 2.35413 8.22972 2.48739 8.40341C2.61072 8.56341 2.78322 8.69758 3.05072 8.86591C3.44489 9.11341 3.69822 9.53508 3.69822 10.0001C3.69822 10.4651 3.44489 10.8867 3.05072 11.1334C2.78322 11.3026 2.60989 11.4367 2.48739 11.5967C2.35413 11.7704 2.2564 11.9687 2.19978 12.1802C2.14315 12.3916 2.12875 12.6122 2.15739 12.8292C2.20072 13.1576 2.39489 13.4942 2.78239 14.1667C3.17155 14.8392 3.36572 15.1751 3.62822 15.3776C3.80192 15.5108 4.00017 15.6086 4.21164 15.6652C4.42312 15.7218 4.64368 15.7362 4.86072 15.7076C5.06072 15.6809 5.26322 15.5992 5.54322 15.4509C5.74368 15.3415 5.96862 15.2847 6.197 15.2859C6.42538 15.287 6.64973 15.3461 6.84905 15.4576C7.25155 15.6909 7.49072 16.1201 7.50739 16.5851C7.51905 16.9017 7.54905 17.1184 7.62655 17.3042C7.71032 17.5066 7.83313 17.6905 7.98799 17.8453C8.14285 18.0002 8.3267 18.123 8.52905 18.2067C8.83489 18.3334 9.22322 18.3334 9.99989 18.3334C10.7766 18.3334 11.1649 18.3334 11.4707 18.2067C11.6731 18.123 11.8569 18.0002 12.0118 17.8453C12.1666 17.6905 12.2895 17.5066 12.3732 17.3042C12.4499 17.1184 12.4807 16.9017 12.4924 16.5851C12.5091 16.1201 12.7482 15.6901 13.1507 15.4576C13.35 15.3461 13.5744 15.287 13.8028 15.2859C14.0312 15.2847 14.2561 15.3415 14.4566 15.4509C14.7366 15.5992 14.9391 15.6809 15.1391 15.7076C15.3561 15.7362 15.5767 15.7218 15.7881 15.6652C15.9996 15.6086 16.1979 15.5108 16.3716 15.3776C16.6341 15.1759 16.8282 14.8392 17.2166 14.1667C17.6049 13.4942 17.7999 13.1584 17.8424 12.8292C17.871 12.6122 17.8566 12.3916 17.8 12.1802C17.7434 11.9687 17.6456 11.7704 17.5124 11.5967C17.3891 11.4367 17.2166 11.3026 16.9491 11.1342C16.754 11.0154 16.5923 10.849 16.479 10.6507C16.3658 10.4523 16.3047 10.2285 16.3016 10.0001C16.3016 9.53508 16.5549 9.11341 16.9491 8.86675C17.2166 8.69758 17.3899 8.56341 17.5124 8.40341C17.6456 8.22972 17.7434 8.03147 17.8 7.81999C17.8566 7.60852 17.871 7.38796 17.8424 7.17091C17.7991 6.84258 17.6049 6.50591 17.2174 5.83341C16.8282 5.16091 16.6341 4.82508 16.3716 4.62258C16.1979 4.48932 15.9996 4.39159 15.7881 4.33497C15.5767 4.27835 15.3561 4.26394 15.1391 4.29258C14.9391 4.31925 14.7366 4.40091 14.4557 4.54925C14.2554 4.65853 14.0306 4.71524 13.8024 4.71408C13.5741 4.71291 13.3499 4.65391 13.1507 4.54258C12.9546 4.42566 12.7913 4.2609 12.6762 4.06371C12.5611 3.86652 12.4978 3.64336 12.4924 3.41508C12.4807 3.09841 12.4507 2.88175 12.3732 2.69591C12.2895 2.49357 12.1666 2.30971 12.0118 2.15485C11.8569 1.99999 11.6731 1.87718 11.4707 1.79341Z" stroke="#FAFAFA" stroke-width="1.5"/>
</svg>
