<svg width="20" height="20" viewBox="0 0 20 20" fill="none" xmlns="http://www.w3.org/2000/svg">
<path d="M7.50008 10.8334C9.34103 10.8334 10.8334 9.34103 10.8334 7.50008C10.8334 5.65913 9.34103 4.16675 7.50008 4.16675C5.65913 4.16675 4.16675 5.65913 4.16675 7.50008C4.16675 9.34103 5.65913 10.8334 7.50008 10.8334Z" stroke="white" stroke-width="2" stroke-linecap="round" stroke-linejoin="round"/>
<path d="M13.3334 15.8334C13.3334 13.0717 10.7217 10.8334 7.50008 10.8334C4.27841 10.8334 1.66675 13.0717 1.66675 15.8334M12.5001 10.8334C13.0571 10.8334 13.6052 10.6938 14.0943 10.4274C14.5834 10.1609 14.998 9.7762 15.3002 9.30828C15.6023 8.84037 15.7824 8.3042 15.8239 7.74876C15.8655 7.19332 15.7672 6.63633 15.538 6.12867C15.3089 5.621 14.9562 5.17885 14.5121 4.84262C14.0681 4.50639 13.5468 4.28679 12.996 4.20388C12.4453 4.12098 11.8825 4.17741 11.3591 4.36803C10.8358 4.55865 10.3685 4.87737 10.0001 5.29508" stroke="white" stroke-width="2" stroke-linecap="round" stroke-linejoin="round"/>
<path d="M18.3333 15.8334C18.3333 13.0717 15.7217 10.8334 12.5 10.8334C11.8275 10.8334 10.7475 10.5892 10 9.8042" stroke="white" stroke-width="2" stroke-linecap="round" stroke-linejoin="round"/>
</svg>
